<svg width="500" height="500" viewBox="0 0 500 500" fill="none" xmlns="http://www.w3.org/2000/svg">
<rect width="500" height="500" fill="#2D2D2D"/>
<path d="M317.349 50L344.987 96.5685L390 116.526L344.987 132.224L317.349 177L290.93 132.224L248 116.526L290.93 96.5685L317.349 50Z" fill="#DC0E0E"/>
<path d="M260.316 190.927C260.316 189.519 261.722 188.538 263.044 189.02C272.053 192.309 301.489 202.399 322.718 202.108C342.857 201.832 370.571 192.23 379.273 189.028C380.596 188.541 382 189.524 382 190.934V230.439V447C382 448.105 381.105 449 380 449H299.264C297.906 449 296.943 447.676 297.361 446.384L326.205 357.297C326.205 357.297 327.85 351.965 322.718 350.243C317.929 348.637 314.424 349.448 312.982 349.948C312.506 350.113 312.162 350.507 311.993 350.983L277.559 447.671C277.275 448.468 276.521 449 275.675 449H223.963C223.184 449 222.476 448.548 222.148 447.842L191.6 381.986C191.6 381.986 187.714 371.405 179.943 374.932C172.171 378.459 176.057 385.514 176.057 385.514L202.063 446.212C202.628 447.532 201.66 449 200.224 449H112.029C110.913 449 110.013 448.087 110.029 446.972L112.358 283.337C112.373 282.244 113.264 281.366 114.358 281.366H227.298C228.403 281.366 229.298 282.261 229.298 283.366V346.986C229.298 347.093 229.305 347.189 229.322 347.294C229.774 350.025 236.501 389.692 246 389.041C255.25 388.406 260.316 347.146 260.316 347.146V190.927Z" fill="black"/>
</svg>
